<svg xmlns="http://www.w3.org/2000/svg" version="1.1" xmlns:xlink="http://www.w3.org/1999/xlink" xmlns:svgjs="http://svgjs.dev/svgjs" viewBox="0 0 800 800" opacity="1"><g stroke-width="2" stroke="#FCCD2A" fill="none" stroke-linecap="round" transform="matrix(1,0,0,1,-5,361)"><path d="M10,10C31.726190476190478,11.458333333333334,68.75,21.375,114.28571428571429,17C159.82142857142858,12.625,180.95238095238096,-11,228.57142857142858,-11C276.1904761904762,-11,295.2380952380953,15.125,342.8571428571429,17C390.4761904761905,18.875,409.5238095238095,-3.25,457.14285714285717,-2C504.7619047619048,-0.75,523.8095238095239,22.791666666666668,571.4285714285714,23C619.047619047619,23.208333333333332,638.0952380952382,-2.25,685.7142857142858,-1C733.3333333333334,0.25,776.1904761904761,22.75,800,29" transform="matrix(1,0,0,1,0,30)"></path><path d="M10,10C31.726190476190478,11.458333333333334,68.75,21.375,114.28571428571429,17C159.82142857142858,12.625,180.95238095238096,-11,228.57142857142858,-11C276.1904761904762,-11,295.2380952380953,15.125,342.8571428571429,17C390.4761904761905,18.875,409.5238095238095,-3.25,457.14285714285717,-2C504.7619047619048,-0.75,523.8095238095239,22.791666666666668,571.4285714285714,23C619.047619047619,23.208333333333332,638.0952380952382,-2.25,685.7142857142858,-1C733.3333333333334,0.25,776.1904761904761,22.75,800,29" transform="matrix(1,0,0,1,0,20)"></path><path d="M10,10C31.726190476190478,11.458333333333334,68.75,21.375,114.28571428571429,17C159.82142857142858,12.625,180.95238095238096,-11,228.57142857142858,-11C276.1904761904762,-11,295.2380952380953,15.125,342.8571428571429,17C390.4761904761905,18.875,409.5238095238095,-3.25,457.14285714285717,-2C504.7619047619048,-0.75,523.8095238095239,22.791666666666668,571.4285714285714,23C619.047619047619,23.208333333333332,638.0952380952382,-2.25,685.7142857142858,-1C733.3333333333334,0.25,776.1904761904761,22.75,800,29" transform="matrix(1,0,0,1,0,10)"></path></g></svg>