<?xml version="1.0" encoding="UTF-8" standalone="no"?>
<svg
   width="17.731544"
   height="18.301941"
   viewBox="0 0 17.731544 18.301941"
   fill="none"
   version="1.1"
   id="svg3"
   sodipodi:docname="verified.svg"
   xmlns:inkscape="http://www.inkscape.org/namespaces/inkscape"
   xmlns:sodipodi="http://sodipodi.sourceforge.net/DTD/sodipodi-0.dtd"
   xmlns="http://www.w3.org/2000/svg"
   xmlns:svg="http://www.w3.org/2000/svg">
  <defs
     id="defs3" />
  <sodipodi:namedview
     id="namedview3"
     pagecolor="#ffffff"
     bordercolor="#000000"
     borderopacity="0.25"
     inkscape:showpageshadow="2"
     inkscape:pageopacity="0.0"
     inkscape:pagecheckerboard="0"
     inkscape:deskcolor="#d1d1d1">
    <inkscape:page
       x="0"
       y="0"
       width="17.731544"
       height="18.301941"
       id="page2"
       margin="0"
       bleed="0" />
  </sodipodi:namedview>
  <path
     d="m 7.6221213,0.689355 c 0.5904,-0.91914 1.9338,-0.91914 2.5241997,0 l 2.0016,3.11641 c 0.2032,0.31625 0.5176,0.54471 0.8812,0.64017 l 3.5824,0.94073 c 1.0566,0.2774 1.4717,1.5551 0.78,2.4006 l -2.3453,2.8667 c -0.238,0.2909 -0.3581,0.6606 -0.3366,1.0358 l 0.2124,3.6978 c 0.0627,1.0906 -1.0242,1.8803 -2.0421,1.4837 l -3.4510997,-1.3447 c -0.3503,-0.1364 -0.739,-0.1364 -1.0892,0 l -3.4511,1.3447 c -1.01793,0.3966 -2.10479,-0.3931 -2.04215,-1.4837 l 0.21239,-3.6978 c 0.02155,-0.3752 -0.09856,-0.7449 -0.33656,-1.0358 l -2.34533,-2.8667 c -0.69172,-0.8455 -0.27658,-2.1232 0.78001,-2.4006 l 3.58244,-0.94073 c 0.3635,-0.09546 0.678,-0.32392 0.8811,-0.64017 z"
     fill="#454BF7"
     id="path1" />
  <path
     d="m 12.768921,1.542325 c 1.0184,-0.39501 2.1041,0.39632 2.0397,1.48684 l -0.2159,3.6607 c -0.0222,0.3753 0.0974,0.7451 0.3349,1.0364 l 2.3177,2.8419 c 0.6904,0.8465 0.2732,2.1236 -0.7838,2.3994 l -3.5483,0.9258 c -0.3637,0.0949 -0.6785,0.3229 -0.8821,0.6388 l -1.9866,3.0824 c -0.5917997,0.9182 -1.9352997,0.9161 -2.5241997,-0.0039 l -1.977,-3.0886 c -0.2026,-0.3165 -0.5167,-0.5455 -0.8801,-0.6415 l -3.54544,-0.9369 c -1.05616,-0.2791 -1.46932,-1.5574 -0.77628,-2.4018 l 2.32645,-2.8347 c 0.23845,-0.2905 0.35914,-0.66 0.33817,-1.0353 l -0.20459,-3.66137 c -0.06094,-1.09071 1.02715,-1.87866 2.04439,-1.48049 l 3.4149,1.33663 c 0.35,0.137 0.7386,0.1376 1.0891,0.00169 z"
     fill="#454BF7"
     id="path2" />
  <path
     d="m 12.384221,6.724465 -4.8416997,5 -2.1583,-2.1717"
     stroke="#ffffff"
     stroke-width="1.3"
     stroke-linecap="round"
     id="path3" />
</svg>
