<svg width="376" height="376" viewBox="0 0 376 376" fill="none" xmlns="http://www.w3.org/2000/svg">
<path d="M326.5 132.599C342.3 110.799 340.4 80.0992 320.8 60.4992C299.6 39.2992 265.6 38.6992 243.7 58.7992V55.9992C243.7 25.1992 218.7 0.199219 187.9 0.199219C157.1 0.199219 132.1 25.1992 132.1 55.9992V58.7992C110.2 38.7992 76.2 39.2992 55 60.4992C35.3 80.1992 33.4 110.799 49.3 132.599C21.6 135.799 0 159.399 0 187.999C0 218.799 25 243.799 55.8 243.799H58.6L55.1 247.299C33.3 269.099 33.3 304.399 55.1 326.199C76.4 347.499 110.8 347.999 132.6 327.399C136.2 354.699 159.6 375.899 187.9 375.899C216.2 375.899 239.6 354.799 243.2 327.399C265.1 347.899 299.4 347.499 320.7 326.199C342.5 304.399 342.5 269.099 320.7 247.299L317.2 243.799H320C350.8 243.799 375.8 218.799 375.8 187.999C375.7 159.399 354.2 135.799 326.5 132.599Z" fill="#FF6347"/>
</svg>
