<?xml version="1.0" encoding="UTF-8"?>
<svg xmlns="http://www.w3.org/2000/svg" xmlns:xlink="http://www.w3.org/1999/xlink" width="100px" height="25px" viewBox="0 0 101 25" version="1.1">
<g id="surface1">
<path style=" stroke:none;fill-rule:nonzero;fill:rgb(100%,100%,100%);fill-opacity:1;" d="M 26.5625 8.859375 L 36.78125 8.859375 L 36.78125 10.785156 L 32.765625 10.785156 L 32.765625 21.59375 L 30.554688 21.59375 L 30.554688 10.785156 L 26.554688 10.785156 L 26.554688 8.859375 Z M 36.34375 12.375 L 38.234375 12.375 L 38.234375 14.152344 L 38.269531 14.152344 C 38.332031 13.902344 38.449219 13.660156 38.617188 13.425781 C 38.785156 13.191406 38.992188 12.96875 39.230469 12.777344 C 39.472656 12.582031 39.738281 12.429688 40.03125 12.300781 C 40.328125 12.183594 40.628906 12.121094 40.933594 12.121094 C 41.164062 12.121094 41.332031 12.132812 41.421875 12.140625 C 41.511719 12.148438 41.601562 12.167969 41.699219 12.175781 L 41.699219 14.136719 C 41.554688 14.109375 41.414062 14.089844 41.261719 14.074219 C 41.109375 14.054688 40.96875 14.046875 40.824219 14.046875 C 40.488281 14.046875 40.167969 14.117188 39.863281 14.253906 C 39.5625 14.386719 39.300781 14.59375 39.078125 14.855469 C 38.855469 15.125 38.679688 15.449219 38.546875 15.84375 C 38.410156 16.238281 38.347656 16.6875 38.347656 17.199219 L 38.347656 21.585938 L 36.335938 21.585938 L 36.335938 12.375 Z M 50.953125 21.59375 L 48.976562 21.59375 L 48.976562 20.308594 L 48.941406 20.308594 C 48.691406 20.777344 48.328125 21.144531 47.835938 21.421875 C 47.347656 21.703125 46.847656 21.847656 46.339844 21.847656 C 45.136719 21.847656 44.265625 21.550781 43.730469 20.945312 C 43.195312 20.34375 42.929688 19.4375 42.929688 18.222656 L 42.929688 12.375 L 44.941406 12.375 L 44.941406 18.027344 C 44.941406 18.835938 45.09375 19.410156 45.40625 19.742188 C 45.707031 20.074219 46.144531 20.246094 46.695312 20.246094 C 47.125 20.246094 47.472656 20.183594 47.757812 20.046875 C 48.042969 19.914062 48.273438 19.742188 48.441406 19.519531 C 48.621094 19.300781 48.746094 19.03125 48.824219 18.726562 C 48.90625 18.421875 48.941406 18.089844 48.941406 17.730469 L 48.941406 12.382812 L 50.953125 12.382812 Z M 54.382812 18.636719 C 54.445312 19.230469 54.667969 19.644531 55.050781 19.886719 C 55.445312 20.121094 55.90625 20.246094 56.449219 20.246094 C 56.636719 20.246094 56.851562 20.226562 57.09375 20.203125 C 57.332031 20.175781 57.5625 20.113281 57.769531 20.03125 C 57.984375 19.949219 58.152344 19.824219 58.292969 19.664062 C 58.429688 19.5 58.492188 19.292969 58.480469 19.03125 C 58.472656 18.773438 58.375 18.558594 58.195312 18.394531 C 58.019531 18.222656 57.796875 18.097656 57.519531 17.992188 C 57.242188 17.890625 56.929688 17.800781 56.574219 17.730469 C 56.21875 17.65625 55.863281 17.578125 55.496094 17.496094 C 55.125 17.414062 54.757812 17.308594 54.410156 17.191406 C 54.0625 17.074219 53.75 16.914062 53.476562 16.707031 C 53.199219 16.507812 52.976562 16.246094 52.816406 15.933594 C 52.648438 15.617188 52.566406 15.230469 52.566406 14.765625 C 52.566406 14.261719 52.691406 13.847656 52.933594 13.507812 C 53.171875 13.164062 53.484375 12.894531 53.847656 12.6875 C 54.222656 12.480469 54.632812 12.339844 55.085938 12.25 C 55.542969 12.167969 55.976562 12.121094 56.386719 12.121094 C 56.859375 12.121094 57.316406 12.175781 57.742188 12.273438 C 58.167969 12.375 58.5625 12.535156 58.910156 12.769531 C 59.257812 12.996094 59.542969 13.289062 59.773438 13.648438 C 60.003906 14.007812 60.148438 14.449219 60.210938 14.960938 L 58.105469 14.960938 C 58.007812 14.476562 57.796875 14.144531 57.449219 13.984375 C 57.101562 13.8125 56.699219 13.730469 56.253906 13.730469 C 56.113281 13.730469 55.941406 13.738281 55.746094 13.765625 C 55.550781 13.792969 55.371094 13.839844 55.195312 13.902344 C 55.023438 13.964844 54.882812 14.0625 54.757812 14.1875 C 54.640625 14.316406 54.578125 14.476562 54.578125 14.683594 C 54.578125 14.933594 54.667969 15.132812 54.839844 15.285156 C 55.007812 15.4375 55.230469 15.5625 55.507812 15.671875 C 55.78125 15.769531 56.09375 15.859375 56.449219 15.933594 C 56.808594 16.003906 57.171875 16.085938 57.546875 16.167969 C 57.910156 16.246094 58.269531 16.355469 58.625 16.472656 C 58.980469 16.589844 59.292969 16.75 59.566406 16.957031 C 59.84375 17.164062 60.066406 17.414062 60.238281 17.722656 C 60.40625 18.027344 60.496094 18.414062 60.496094 18.863281 C 60.496094 19.410156 60.371094 19.867188 60.121094 20.253906 C 59.871094 20.632812 59.550781 20.945312 59.160156 21.179688 C 58.765625 21.414062 58.320312 21.59375 57.839844 21.703125 C 57.359375 21.808594 56.878906 21.863281 56.40625 21.863281 C 55.828125 21.863281 55.292969 21.800781 54.800781 21.667969 C 54.3125 21.53125 53.886719 21.332031 53.527344 21.074219 C 53.171875 20.804688 52.886719 20.472656 52.683594 20.074219 C 52.476562 19.679688 52.371094 19.203125 52.351562 18.65625 L 54.382812 18.65625 Z M 61.027344 12.375 L 62.550781 12.375 L 62.550781 9.605469 L 64.566406 9.605469 L 64.566406 12.375 L 66.382812 12.375 L 66.382812 13.894531 L 64.566406 13.894531 L 64.566406 18.816406 C 64.566406 19.03125 64.574219 19.210938 64.59375 19.375 C 64.609375 19.527344 64.65625 19.664062 64.71875 19.769531 C 64.78125 19.878906 64.878906 19.957031 65.011719 20.011719 C 65.144531 20.066406 65.3125 20.09375 65.546875 20.09375 C 65.6875 20.09375 65.832031 20.09375 65.972656 20.085938 C 66.117188 20.074219 66.257812 20.058594 66.402344 20.023438 L 66.402344 21.59375 C 66.179688 21.621094 65.957031 21.640625 65.75 21.667969 C 65.535156 21.691406 65.324219 21.703125 65.101562 21.703125 C 64.566406 21.703125 64.136719 21.648438 63.816406 21.550781 C 63.496094 21.449219 63.238281 21.296875 63.058594 21.101562 C 62.875 20.902344 62.757812 20.660156 62.6875 20.363281 C 62.625 20.066406 62.578125 19.726562 62.570312 19.347656 L 62.570312 13.910156 L 61.046875 13.910156 L 61.046875 12.375 Z M 67.808594 12.375 L 69.714844 12.375 L 69.714844 13.625 L 69.75 13.625 C 70.035156 13.085938 70.425781 12.707031 70.933594 12.472656 C 71.441406 12.238281 71.984375 12.121094 72.582031 12.121094 C 73.304688 12.121094 73.929688 12.25 74.460938 12.507812 C 74.996094 12.761719 75.441406 13.109375 75.796875 13.558594 C 76.15625 14.007812 76.414062 14.53125 76.589844 15.125 C 76.769531 15.71875 76.859375 16.355469 76.859375 17.027344 C 76.859375 17.648438 76.777344 18.25 76.617188 18.828125 C 76.457031 19.410156 76.21875 19.921875 75.898438 20.371094 C 75.574219 20.820312 75.167969 21.171875 74.667969 21.441406 C 74.167969 21.710938 73.589844 21.847656 72.914062 21.847656 C 72.617188 21.847656 72.324219 21.820312 72.03125 21.765625 C 71.738281 21.710938 71.453125 21.621094 71.183594 21.503906 C 70.917969 21.386719 70.660156 21.234375 70.4375 21.046875 C 70.203125 20.855469 70.015625 20.640625 69.855469 20.398438 L 69.820312 20.398438 L 69.820312 25 L 67.808594 25 Z M 74.84375 16.992188 C 74.84375 16.578125 74.792969 16.175781 74.683594 15.78125 C 74.578125 15.382812 74.417969 15.042969 74.203125 14.738281 C 73.992188 14.433594 73.722656 14.1875 73.410156 14.007812 C 73.089844 13.828125 72.726562 13.730469 72.316406 13.730469 C 71.46875 13.730469 70.828125 14.027344 70.402344 14.621094 C 69.972656 15.214844 69.757812 16.003906 69.757812 16.992188 C 69.757812 17.460938 69.8125 17.890625 69.929688 18.289062 C 70.042969 18.683594 70.203125 19.023438 70.4375 19.3125 C 70.660156 19.597656 70.925781 19.824219 71.238281 19.984375 C 71.550781 20.15625 71.914062 20.238281 72.324219 20.238281 C 72.789062 20.238281 73.171875 20.136719 73.492188 19.949219 C 73.8125 19.761719 74.070312 19.507812 74.277344 19.210938 C 74.480469 18.90625 74.632812 18.566406 74.722656 18.179688 C 74.800781 17.792969 74.84375 17.398438 74.84375 16.992188 Z M 78.398438 8.859375 L 80.414062 8.859375 L 80.414062 10.785156 L 78.398438 10.785156 Z M 78.398438 12.375 L 80.414062 12.375 L 80.414062 21.59375 L 78.398438 21.59375 Z M 82.210938 8.859375 L 84.226562 8.859375 L 84.226562 21.59375 L 82.210938 21.59375 Z M 90.398438 21.847656 C 89.667969 21.847656 89.019531 21.71875 88.449219 21.476562 C 87.878906 21.234375 87.398438 20.894531 86.996094 20.472656 C 86.605469 20.039062 86.300781 19.527344 86.097656 18.933594 C 85.890625 18.339844 85.785156 17.683594 85.785156 16.976562 C 85.785156 16.273438 85.890625 15.628906 86.097656 15.035156 C 86.300781 14.441406 86.605469 13.929688 86.996094 13.496094 C 87.386719 13.066406 87.878906 12.734375 88.449219 12.492188 C 89.019531 12.25 89.667969 12.121094 90.398438 12.121094 C 91.128906 12.121094 91.78125 12.25 92.351562 12.492188 C 92.917969 12.734375 93.402344 13.074219 93.800781 13.496094 C 94.195312 13.929688 94.496094 14.441406 94.703125 15.035156 C 94.90625 15.628906 95.011719 16.273438 95.011719 16.976562 C 95.011719 17.683594 94.90625 18.339844 94.703125 18.933594 C 94.496094 19.527344 94.195312 20.039062 93.800781 20.472656 C 93.410156 20.902344 92.917969 21.234375 92.351562 21.476562 C 91.78125 21.71875 91.128906 21.847656 90.398438 21.847656 Z M 90.398438 20.238281 C 90.84375 20.238281 91.234375 20.136719 91.566406 19.949219 C 91.894531 19.761719 92.164062 19.507812 92.375 19.203125 C 92.589844 18.898438 92.742188 18.546875 92.847656 18.160156 C 92.945312 17.773438 93 17.378906 93 16.976562 C 93 16.578125 92.945312 16.195312 92.847656 15.796875 C 92.75 15.402344 92.589844 15.0625 92.375 14.753906 C 92.164062 14.449219 91.894531 14.207031 91.566406 14.019531 C 91.234375 13.828125 90.84375 13.730469 90.398438 13.730469 C 89.953125 13.730469 89.5625 13.828125 89.230469 14.019531 C 88.902344 14.207031 88.636719 14.460938 88.421875 14.753906 C 88.207031 15.0625 88.054688 15.402344 87.949219 15.796875 C 87.851562 16.195312 87.796875 16.578125 87.796875 16.976562 C 87.796875 17.378906 87.851562 17.773438 87.949219 18.160156 C 88.046875 18.546875 88.207031 18.898438 88.421875 19.203125 C 88.636719 19.507812 88.902344 19.761719 89.230469 19.949219 C 89.5625 20.148438 89.953125 20.238281 90.398438 20.238281 Z M 95.601562 12.375 L 97.125 12.375 L 97.125 9.605469 L 99.136719 9.605469 L 99.136719 12.375 L 100.953125 12.375 L 100.953125 13.894531 L 99.136719 13.894531 L 99.136719 18.816406 C 99.136719 19.03125 99.144531 19.210938 99.164062 19.375 C 99.183594 19.527344 99.226562 19.664062 99.289062 19.769531 C 99.351562 19.878906 99.449219 19.957031 99.582031 20.011719 C 99.714844 20.066406 99.886719 20.09375 100.117188 20.09375 C 100.261719 20.09375 100.402344 20.09375 100.546875 20.085938 C 100.6875 20.074219 100.828125 20.058594 100.972656 20.023438 L 100.972656 21.59375 C 100.75 21.621094 100.527344 21.640625 100.324219 21.667969 C 100.109375 21.691406 99.894531 21.703125 99.671875 21.703125 C 99.136719 21.703125 98.710938 21.648438 98.390625 21.550781 C 98.070312 21.449219 97.808594 21.296875 97.632812 21.101562 C 97.445312 20.902344 97.328125 20.660156 97.257812 20.363281 C 97.195312 20.066406 97.152344 19.726562 97.140625 19.347656 L 97.140625 13.910156 L 95.617188 13.910156 L 95.617188 12.375 Z M 95.601562 12.375 "/>
<path style=" stroke:none;fill-rule:nonzero;fill:rgb(0%,71.372549%,47.843137%);fill-opacity:1;" d="M 24.210938 8.859375 L 14.984375 8.859375 L 12.132812 0 L 9.273438 8.859375 L 0.046875 8.851562 L 7.519531 14.332031 L 4.660156 23.183594 L 12.132812 17.710938 L 19.597656 23.183594 L 16.746094 14.332031 Z M 24.210938 8.859375 "/>
<path style=" stroke:none;fill-rule:nonzero;fill:rgb(0%,31.764706%,15.686275%);fill-opacity:1;" d="M 17.390625 16.335938 L 16.746094 14.332031 L 12.132812 17.710938 Z M 17.390625 16.335938 "/>
</g>
</svg>
